/* XPM */
static const char * heyyou_xpm[] = {
"66 50 416 2",
"  	c #FFFFFF",
". 	c #FEFEFE",
"+ 	c #FEFFFF",
"@ 	c #F3F2F1",
"# 	c #DCCCCD",
"$ 	c #C5A7A5",
"% 	c #B98F8D",
"& 	c #B88A87",
"* 	c #C2A19F",
"= 	c #D5C2C2",
"- 	c #EEECEB",
"; 	c #F9F8F8",
"> 	c #E1D6D7",
", 	c #CAB0AD",
"' 	c #BC9391",
") 	c #B78A87",
"! 	c #B88986",
"~ 	c #BE9A98",
"{ 	c #CFB9B8",
"] 	c #E8E1E2",
"^ 	c #FDFDFF",
"/ 	c #EFECEC",
"( 	c #BB9292",
"_ 	c #A85651",
": 	c #A93A35",
"< 	c #BE605B",
"[ 	c #DA9C99",
"} 	c #EBC1BF",
"| 	c #F0CFCD",
"1 	c #EFC6C5",
"2 	c #DDA7A5",
"3 	c #C6716C",
"4 	c #A83631",
"5 	c #A84C47",
"6 	c #B17B7A",
"7 	c #E0D1D4",
"8 	c #F4F3F3",
"9 	c #C4A1A0",
"0 	c #A95B59",
"a 	c #A8403A",
"b 	c #B64F49",
"c 	c #D3918E",
"d 	c #E8BBB9",
"e 	c #F1CECC",
"f 	c #F2CBCA",
"g 	c #E5B3B2",
"h 	c #CD827F",
"i 	c #AB3D37",
"j 	c #A94742",
"k 	c #AC6D69",
"l 	c #D3C2C0",
"m 	c #F1EFEF",
"n 	c #AE7672",
"o 	c #AA3D39",
"p 	c #DA9D9A",
"q 	c #FFF6F4",
"r 	c #FFE6E5",
"s 	c #FDE2E2",
"t 	c #FDE3E2",
"u 	c #FDE2E1",
"v 	c #FEE4E3",
"w 	c #FFF1F1",
"x 	c #EEC7C5",
"y 	c #AB3A36",
"z 	c #A95854",
"A 	c #D3BFBF",
"B 	c #F2F0EF",
"C 	c #AF7B79",
"D 	c #A9423D",
"E 	c #CE8784",
"F 	c #FFE8E7",
"G 	c #FFECEC",
"H 	c #F9DCDC",
"I 	c #B44B45",
"J 	c #A7524F",
"K 	c #CBB5B2",
"L 	c #CAAFAC",
"M 	c #AA4845",
"N 	c #E2AEAC",
"O 	c #FDE1E0",
"P 	c #FEE2E1",
"Q 	c #FFEDED",
"R 	c #AB3D36",
"S 	c #AA6865",
"T 	c #C1A39F",
"U 	c #AB4641",
"V 	c #E0A7A4",
"W 	c #FFEBEB",
"X 	c #FEE1E0",
"Y 	c #FFF4F4",
"Z 	c #AF403C",
"` 	c #AB6564",
" .	c #F4F4F4",
"..	c #B68C88",
"+.	c #AA3833",
"@.	c #FFF2F3",
"#.	c #FEE0DF",
"$.	c #FFE2E1",
"%.	c #E8B8B7",
"&.	c #AB4C46",
"*.	c #D8C7C7",
"=.	c #FBFAFB",
"-.	c #AC6A68",
";.	c #B14642",
">.	c #FFF0F0",
",.	c #FDE0DF",
"'.	c #E2ADAB",
").	c #AA514D",
"!.	c #EBE3E3",
"~.	c #BA928F",
"{.	c #AE403B",
"].	c #FFE6E6",
"^.	c #FCDEDF",
"/.	c #A93F38",
"(.	c #CAB1B0",
"_.	c #F9F6F7",
":.	c #A95955",
"<.	c #D38E8A",
"[.	c #FDDFE0",
"}.	c #FCDEDE",
"|.	c #F7D9D9",
"1.	c #A94F4B",
"2.	c #F2F2F1",
"3.	c #D8C8C8",
"4.	c #A83932",
"5.	c #FFE8E6",
"6.	c #FCDDDB",
"7.	c #FFF2F2",
"8.	c #AD3D39",
"9.	c #D2BDBC",
"0.	c #FCFCFC",
"a.	c #A85A56",
"b.	c #E1ACAB",
"c.	c #E9B8B5",
"d.	c #A9615D",
"e.	c #A95450",
"f.	c #FFE9E8",
"g.	c #FDDBDA",
"h.	c #FFF1F2",
"i.	c #A94440",
"j.	c #E8E1E0",
"k.	c #AA6966",
"l.	c #D59291",
"m.	c #FEDCDB",
"n.	c #B54E49",
"o.	c #CBB0AF",
"p.	c #CFB8B6",
"q.	c #B85550",
"r.	c #FEDBD9",
"s.	c #FEDCD9",
"t.	c #FCDCDC",
"u.	c #A95754",
"v.	c #BF9C9A",
"w.	c #B44B46",
"x.	c #FEDCDA",
"y.	c #FFF2F1",
"z.	c #A8524D",
"A.	c #AA615E",
"B.	c #FFE2E2",
"C.	c #C26861",
"D.	c #B38885",
"E.	c #AC4540",
"F.	c #FFE9E7",
"G.	c #B24A45",
"H.	c #E1D6D5",
"I.	c #FBFCFB",
"J.	c #A8443E",
"K.	c #FFE0DE",
"L.	c #FCDAD7",
"M.	c #FFE5E4",
"N.	c #B14740",
"O.	c #EBBCBB",
"P.	c #FCD9D7",
"Q.	c #E5ABAB",
"R.	c #BB9390",
"S.	c #EAE4E4",
"T.	c #AB3F3A",
"U.	c #FED7D6",
"V.	c #FDD7D6",
"W.	c #D6908C",
"X.	c #FFDBDA",
"Y.	c #FFEDEF",
"Z.	c #AB6966",
"`.	c #D9CBCB",
" +	c #C36963",
".+	c #FED5D5",
"++	c #FFE4E5",
"@+	c #A85552",
"#+	c #D9C9C8",
"$+	c #C8716D",
"%+	c #FDD4D4",
"&+	c #FFE1E1",
"*+	c #A75450",
"=+	c #DED2D2",
"-+	c #BD5D58",
";+	c #FCD3D0",
">+	c #FFE4E3",
",+	c #A75A58",
"'+	c #EEEDEB",
")+	c #A83834",
"!+	c #FED1D1",
"~+	c #FFE1DF",
"{+	c #AD726E",
"]+	c #A74844",
"^+	c #FFD8D7",
"/+	c #FCD0CF",
"(+	c #DD9592",
"_+	c #C2A09D",
":+	c #AA6864",
"<+	c #FDCFCC",
"[+	c #FED0CD",
"}+	c #B24943",
"|+	c #E5DCDA",
"1+	c #CDB6B4",
"2+	c #C46A65",
"3+	c #FCCECB",
"4+	c #FCCECC",
"5+	c #FFDDDB",
"6+	c #A64E49",
"7+	c #FAFCFD",
"8+	c #A84846",
"9+	c #FFD7D4",
"0+	c #FDCDCB",
"a+	c #D68987",
"b+	c #BA9390",
"c+	c #DB9390",
"d+	c #FDCACA",
"e+	c #FDCBCA",
"f+	c #FFD2D0",
"g+	c #A9423E",
"h+	c #F3F1F2",
"i+	c #F5F6F7",
"j+	c #AA4843",
"k+	c #FFD5D3",
"l+	c #FCC9C7",
"m+	c #FCC9C6",
"n+	c #D48380",
"o+	c #B58583",
"p+	c #BC9796",
"q+	c #C2615C",
"r+	c #FBC8C5",
"s+	c #FBC9C6",
"t+	c #FFDAD8",
"u+	c #A84A47",
"v+	c #F8F8FA",
"w+	c #FCFFFF",
"x+	c #FCC8C7",
"y+	c #FDC6C5",
"z+	c #FDC6C4",
"A+	c #FEC8C6",
"B+	c #AF453F",
"C+	c #CDB3B2",
"D+	c #FEFEFF",
"E+	c #E4DDDB",
"F+	c #AA423D",
"G+	c #FFCFCF",
"H+	c #FCC4C4",
"I+	c #FCC5C4",
"J+	c #D88D8A",
"K+	c #AB6E6C",
"L+	c #C1A49F",
"M+	c #AD413C",
"N+	c #FDC7C3",
"O+	c #FBC5C1",
"P+	c #FFCCC9",
"Q+	c #A9524E",
"R+	c #FAF9FA",
"S+	c #AF7977",
"T+	c #C46762",
"U+	c #FDC2C0",
"V+	c #FDC3C1",
"W+	c #FFD4D2",
"X+	c #AA4741",
"Y+	c #E5DDDB",
"Z+	c #FDFFFF",
"`+	c #A86460",
" @	c #DB8B88",
".@	c #FCC0BF",
"+@	c #FFCDCD",
"@@	c #AA403B",
"#@	c #D2BEBF",
"$@	c #FAFBFB",
"%@	c #A85B58",
"&@	c #E09A94",
"*@	c #FCBFBE",
"=@	c #FFCBCA",
"-@	c #C6A7A7",
";@	c #F8F8F9",
">@	c #E29893",
",@	c #FBBEBD",
"'@	c #FFCACA",
")@	c #AB403B",
"!@	c #C2A4A3",
"~@	c #F7F8F8",
"{@	c #A85A57",
"]@	c #D88580",
"^@	c #FCBCBA",
"/@	c #FFCAC9",
"(@	c #AA413B",
"_@	c #C2A3A3",
":@	c #FAFAFB",
"<@	c #AA6462",
"[@	c #C3655F",
"}@	c #FDBDBB",
"|@	c #FCBBB9",
"1@	c #FFC9C9",
"2@	c #AA443F",
"3@	c #CBB4B2",
"4@	c #AE7573",
"5@	c #B24843",
"6@	c #FFC0BE",
"7@	c #FDB8B6",
"8@	c #F7B4AF",
"9@	c #AB4B46",
"0@	c #D9CBC9",
"a@	c #BC9492",
"b@	c #A8423C",
"c@	c #FFC4C2",
"d@	c #FBB5B3",
"e@	c #FDB7B4",
"f@	c #D67D79",
"g@	c #AA5652",
"h@	c #EBE5E3",
"i@	c #D5C0C0",
"j@	c #AB4C47",
"k@	c #F1A9A4",
"l@	c #FCB4B2",
"m@	c #FFBEBC",
"n@	c #B24B45",
"o@	c #AC6D6B",
"p@	c #F9FAFB",
"q@	c #EFEBE9",
"r@	c #AB5D59",
"s@	c #C15E5A",
"t@	c #FEB9B6",
"u@	c #FAB4B2",
"v@	c #FAB3B2",
"w@	c #FFBBB7",
"x@	c #AA443E",
"y@	c #BF9A98",
"z@	c #B38584",
"A@	c #FFBBB9",
"B@	c #FCB2AE",
"C@	c #FCB2AF",
"D@	c #FEB4B2",
"E@	c #D07571",
"F@	c #A8534E",
"G@	c #E0D3D1",
"H@	c #D9C8C7",
"I@	c #A9514C",
"J@	c #D47975",
"K@	c #F9AFAC",
"L@	c #FFBDBB",
"M@	c #AA433D",
"N@	c #AF7877",
"O@	c #F9F9FA",
"P@	c #AF7874",
"Q@	c #AC433D",
"R@	c #FFB8B7",
"S@	c #FBADAB",
"T@	c #FEB1AF",
"U@	c #D57875",
"V@	c #A84F4B",
"W@	c #D6C3C2",
"X@	c #D7C6C4",
"Y@	c #AA524E",
"Z@	c #CA6A66",
"`@	c #FFB1AD",
" #	c #FCACA8",
".#	c #FFB5B2",
"+#	c #AB433D",
"@#	c #B07A78",
"##	c #F8F7F8",
"$#	c #B58686",
"%#	c #A9443F",
"&#	c #F5A4A0",
"*#	c #FDAAA8",
"=#	c #FBAAA7",
"-#	c #FBA9A7",
";#	c #FFB3B1",
">#	c #BD5A56",
",#	c #A85652",
"'#	c #DDCDCD",
")#	c #E6E0E0",
"!#	c #A9635E",
"~#	c #B04A43",
"{#	c #FFB3B2",
"]#	c #FCA7A5",
"^#	c #FEA9A8",
"/#	c #E08583",
"(#	c #A94843",
"_#	c #BC9897",
":#	c #CDB5B6",
"<#	c #A9514B",
"[#	c #C3605D",
"}#	c #FFB0AC",
"|#	c #FAA7A3",
"1#	c #FBA8A4",
"2#	c #F9A7A3",
"3#	c #AB433E",
"4#	c #AD736E",
"5#	c #F1EFEE",
"6#	c #FCFDFD",
"7#	c #BC9493",
"8#	c #A94844",
"9#	c #D87A77",
"0#	c #FEA9A7",
"a#	c #FFB1AC",
"b#	c #B14943",
"c#	c #A85F5A",
"d#	c #E3D6D5",
"e#	c #F4F2F2",
"f#	c #B17C7A",
"g#	c #A64742",
"h#	c #A75551",
"i#	c #D3BEBC",
"                                                                                                                                    ",
"                        . +                                                                                                         ",
"                      @ # $ % & & * = -                                               ; > , ' ) ! ~ { ] ^                           ",
"            .   / ( _ : < [ } | 1 2 3 4 5 6 7                                   8 9 0 a b c d e f g h i j k l                       ",
"            m n o p q r s t t t t t u v w x y z A                           B C D E w F s t t t t t t t G H I J K                   ",
"          L M N F O O O O O O O O O O O O O P Q R S m                     T U V W X O O O O O O O O O O O O X Y Z `  .              ",
"        ..+.@.#.#.#.#.#.#.#.#.#.#.#.#.#.#.#.#.#.$.%.&.*.              =.-.;.>.,.#.#.#.#.#.#.#.#.#.#.#.#.#.#.#.#.X '.).!.            ",
"      ~.{.].^.^.^.^.^.^.^.^.^.^.^.^.^.^.^.^.^.^.^.^.@./.(.          _.:.<.[.^.^.^.^.^.^.^.^.^.^.^.^.^.^.^.^.^.^.^.}.|.1.2.          ",
"    3.4.5.6.6.6.6.6.6.6.6.6.6.6.6.6.6.6.6.6.6.6.6.6.6.7.8.9.      0.a.b.6.6.6.6.6.6.6.6.6.6.6.6.6.6.6.6.6.6.6.6.6.6.6.c.d.          ",
"  + e.f.g.g.g.g.g.g.g.g.g.g.g.g.g.g.g.g.g.g.g.g.g.g.g.g.h.i.j.    k.l.g.g.g.g.g.g.g.g.g.g.g.g.g.g.g.g.g.g.g.g.g.g.g.g.m.n.o.        ",
"  p.q.r.s.s.s.s.s.s.s.s.s.s.s.s.s.s.s.s.s.s.s.s.s.s.s.s.s.t.u.  v.w.x.s.s.s.s.s.s.s.s.s.s.s.s.s.s.s.s.s.s.s.s.s.s.s.s.s.y.z.+       ",
"  A.B.r.r.r.r.r.r.r.r.r.r.r.r.r.r.r.r.r.r.r.r.r.r.r.r.r.r.r.C.D.E.F.r.r.r.r.r.r.r.r.r.r.r.r.r.r.r.r.r.r.r.r.r.r.r.r.r.r.x.G.H.      ",
"I.J.K.L.L.L.L.L.L.L.L.L.L.L.L.L.L.L.L.L.L.L.L.L.L.L.L.L.L.L.M.N.O.L.L.L.L.L.L.L.L.L.L.L.L.L.L.L.L.L.L.L.L.L.L.L.L.L.L.L.P.Q.R.      ",
"S.T.U.V.V.V.V.V.V.V.V.V.V.V.V.V.V.V.V.V.V.V.V.V.V.V.V.V.V.V.V.W.X.V.V.V.V.V.V.V.V.V.V.V.V.V.V.V.V.V.V.V.V.V.V.V.V.V.V.V.V.Y.Z.      ",
"`. +.+.+.+.+.+.+.+.+.+.+.+.+.+.+.+.+.+.+.+.+.+.+.+.+.+.+.+.+.+.+.+.+.+.+.+.+.+.+.+.+.+.+.+.+.+.+.+.+.+.+.+.+.+.+.+.+.+.+.+++@+      ",
"#+$+%+%+%+%+%+%+%+%+%+%+%+%+%+%+%+%+%+%+%+%+%+%+%+%+%+%+%+%+%+%+%+%+%+%+%+%+%+%+%+%+%+%+%+%+%+%+%+%+%+%+%+%+%+%+%+%+%+%+%+&+*+      ",
"=+-+;+;+;+;+;+;+;+;+;+;+;+;+;+;+;+;+;+;+;+;+;+;+;+;+;+;+;+;+;+;+;+;+;+;+;+;+;+;+;+;+;+;+;+;+;+;+;+;+;+;+;+;+;+;+;+;+;+;+;+>+,+      ",
"'+)+!+!+!+!+!+!+!+!+!+!+!+!+!+!+!+!+!+!+!+!+!+!+!+!+!+!+!+!+!+!+!+!+!+!+!+!+!+!+!+!+!+!+!+!+!+!+!+!+!+!+!+!+!+!+!+!+!+!+!+~+{+      ",
"+ ]+^+/+/+/+/+/+/+/+/+/+/+/+/+/+/+/+/+/+/+/+/+/+/+/+/+/+/+/+/+/+/+/+/+/+/+/+/+/+/+/+/+/+/+/+/+/+/+/+/+/+/+/+/+/+/+/+/+/+/+(+_+      ",
"  :+;+<+<+<+<+<+<+<+<+<+<+<+<+<+<+<+<+<+<+<+<+<+<+<+<+<+<+<+<+<+<+<+<+<+<+<+<+<+<+<+<+<+<+<+<+<+<+<+<+<+<+<+<+<+<+<+<+<+[+}+|+      ",
"  1+2+3+4+4+4+4+4+4+4+4+4+4+4+4+4+4+4+4+4+4+4+4+4+4+4+4+4+4+4+4+4+4+4+4+4+4+4+4+4+4+4+4+4+4+4+4+4+4+4+4+4+4+4+4+4+4+4+4+5+6+        ",
"  7+8+9+0+0+0+0+0+0+0+0+0+0+0+0+0+0+0+0+0+0+0+0+0+0+0+0+0+0+0+0+0+0+0+0+0+0+0+0+0+0+0+0+0+0+0+0+0+0+0+0+0+0+0+0+0+0+0+0+a+b+        ",
"    ) c+d+e+e+e+e+e+e+e+e+e+e+e+e+e+e+e+e+e+e+e+e+e+e+e+e+e+e+e+e+e+e+e+e+e+e+e+e+e+e+e+e+e+e+e+e+e+e+e+e+e+e+e+e+e+e+f+g+h+        ",
"    i+j+k+l+l+l+l+l+l+l+l+l+l+l+l+l+l+l+l+l+l+l+l+l+l+l+l+l+l+l+l+l+l+l+l+l+l+l+l+l+l+l+l+l+l+l+l+l+l+l+l+l+l+l+l+l+m+n+o+          ",
"      p+q+r+s+s+s+s+s+s+s+s+s+s+s+s+s+s+s+s+s+s+s+s+s+s+s+s+s+s+s+s+s+s+s+s+s+s+s+s+s+s+s+s+s+s+s+s+s+s+s+s+s+s+s+s+t+u+v+          ",
"      w+:.x+y+z+z+z+z+z+z+z+z+z+z+z+z+z+z+z+z+z+z+z+z+z+z+z+z+z+z+z+z+z+z+z+z+z+z+z+z+z+z+z+z+z+z+z+z+z+z+z+z+z+z+A+B+C+            ",
"      D+E+F+G+H+H+H+H+H+H+H+H+H+H+H+H+H+H+H+H+H+H+H+H+H+H+H+H+H+H+H+H+H+H+H+H+H+H+H+H+H+H+H+H+H+H+H+H+H+H+H+H+H+I+J+K+              ",
"          L+M+N+O+O+O+O+O+O+O+O+O+O+O+O+O+O+O+O+O+O+O+O+O+O+O+O+O+O+O+O+O+O+O+O+O+O+O+O+O+O+O+O+O+O+O+O+O+O+O+O+P+Q+R+              ",
"            S+T+U+V+V+V+V+V+V+V+V+V+V+V+V+V+V+V+V+V+V+V+V+V+V+V+V+V+V+V+V+V+V+V+V+V+V+V+V+V+V+V+V+V+V+V+V+V+V+W+X+Y+.               ",
"            Z+`+ @.@.@.@.@.@.@.@.@.@.@.@.@.@.@.@.@.@.@.@.@.@.@.@.@.@.@.@.@.@.@.@.@.@.@.@.@.@.@.@.@.@.@.@.@.@+@@@#@                  ",
"              $@%@&@*@*@*@*@*@*@*@*@*@*@*@*@*@*@*@*@*@*@*@*@*@*@*@*@*@*@*@*@*@*@*@*@*@*@*@*@*@*@*@*@*@*@*@=@T.-@                    ",
"                ;@%@>@,@,@,@,@,@,@,@,@,@,@,@,@,@,@,@,@,@,@,@,@,@,@,@,@,@,@,@,@,@,@,@,@,@,@,@,@,@,@,@,@,@'@)@!@                      ",
"                  ~@{@]@^@^@^@^@^@^@^@^@^@^@^@^@^@^@^@^@^@^@^@^@^@^@^@^@^@^@^@^@^@^@^@^@^@^@^@^@^@^@^@/@(@_@                        ",
"                    :@<@[@}@|@|@|@|@|@|@|@|@|@|@|@|@|@|@|@|@|@|@|@|@|@|@|@|@|@|@|@|@|@|@|@|@|@|@|@|@1@2@3@                          ",
"                      Z+4@5@6@7@7@7@7@7@7@7@7@7@7@7@7@7@7@7@7@7@7@7@7@7@7@7@7@7@7@7@7@7@7@7@7@7@7@8@9@0@                            ",
"                          a@b@c@d@d@d@d@d@d@d@d@d@d@d@d@d@d@d@d@d@d@d@d@d@d@d@d@d@d@d@d@d@d@d@e@f@g@h@                              ",
"                            i@j@k@l@l@l@l@l@l@l@l@l@l@l@l@l@l@l@l@l@l@l@l@l@l@l@l@l@l@l@l@l@m@n@o@p@                                ",
"                              q@r@s@t@u@u@u@u@u@u@u@u@u@u@u@u@u@u@u@u@u@u@u@u@u@u@u@u@u@v@w@x@y@                                    ",
"                                w+z@F+A@B@C@C@C@C@C@C@C@C@C@C@C@C@C@C@C@C@C@C@C@C@C@C@D@E@F@G@                                      ",
"                                    H@I@J@C@K@K@K@K@K@K@K@K@K@K@K@K@K@K@K@K@K@K@K@K@L@M@N@O@                                        ",
"                                      ~@P@Q@R@S@S@S@S@S@S@S@S@S@S@S@S@S@S@S@S@S@T@U@V@W@                                            ",
"                                      .   X@Y@Z@`@ # # # # # # # # # # # # # #.#+#@###+                                             ",
"                                            $@$#%#&#*#=#=#=#=#=#=#=#=#=#-#;#>#,#'#                                                  ",
"                                            .   )#!#~#{#]#]#]#]#]#]#]#^#/#(#_#+                                                     ",
"                                                    :#<#[#}#|#|#|#1#2#3#4#5#                                                        ",
"                                                      6#7#8#9#0#a#b#c#d#                                                            ",
"                                                          e#f#g#h#i#                                                                ",
"                                                                                                                                    ",
"                                                                                                                                    ",
"                                                                                                                                    "};
